<?xml version="1.0" encoding="utf-8"?>
<!-- Generator: Adobe Illustrator 24.1.1, SVG Export Plug-In . SVG Version: 6.00 Build 0)  -->
<svg version="1.1" id="Layer_1" xmlns="http://www.w3.org/2000/svg" xmlns:xlink="http://www.w3.org/1999/xlink" x="0px" y="0px"
	 viewBox="0 0 150.1 95" style="enable-background:new 0 0 150.1 95;" xml:space="preserve">
<style type="text/css">
	.st0{fill:#190202;}
	.st1{fill:#2C222D;}
	.st2{fill-rule:evenodd;clip-rule:evenodd;fill:#FF0000;}
</style>
<path class="st0" d="M150,19c-0.1-10.6-8.7-19.1-19.3-19H76l0,0c23.4,0.7,42.1,21.7,42.1,47.5S99.4,94.3,76,95l0,0h54.8
	c10.6,0.1,19.2-8.4,19.3-19L150,19L150,19z"/>
<path class="st1" d="M31.5,47.5C31.5,21.6,50.4,0.5,74,0l0,0H19.3C8.7-0.1,0.1,8.4,0,19v57c0.1,10.6,8.7,19.1,19.3,19H74l0,0
	C50.5,94.5,31.5,73.4,31.5,47.5z"/>
<path class="st2" d="M76,81c58-25.1,25.8-75.1,0-47C45.5,5.9,18.8,57.8,76,81z"/>
</svg>
